<?xml version="1.0" standalone="no"?>
<!DOCTYPE svg PUBLIC "-//W3C//DTD SVG 20010904//EN"
 "http://www.w3.org/TR/2001/REC-SVG-20010904/DTD/svg10.dtd">
<svg version="1.0" xmlns="http://www.w3.org/2000/svg"
 width="2627.000000pt" height="2627.000000pt" viewBox="0 0 2627.000000 2627.000000"
 preserveAspectRatio="xMidYMid meet">
<metadata>
Created by potrace 1.14, written by Peter Selinger 2001-2017
</metadata>
<g transform="translate(0.000000,2627.000000) scale(0.100000,-0.100000)"
fill="#000000" stroke="none">
<path d="M10558 18056 c-1 -2 -46 -7 -98 -10 -136 -10 -155 -13 -255 -35 -49
-12 -99 -22 -110 -24 -49 -10 -219 -74 -315 -119 -85 -41 -289 -164 -310 -188
-3 -3 -18 -16 -35 -29 -16 -12 -47 -38 -68 -57 -21 -20 -42 -32 -49 -28 -6 4
-8 3 -5 -3 7 -11 -58 -83 -75 -83 -5 0 -7 -4 -3 -9 3 -5 1 -12 -5 -16 -6 -4
-40 -43 -77 -88 -36 -45 -70 -81 -75 -79 -5 1 -6 -2 -3 -8 9 -15 -45 -91 -58
-83 -6 3 -7 1 -3 -5 6 -11 -8 -50 -23 -62 -7 -6 -57 -107 -91 -185 -13 -27
-28 -53 -34 -57 -6 -4 -8 -8 -4 -8 11 0 -13 -60 -24 -60 -5 0 -7 -4 -4 -9 3
-4 -5 -30 -18 -57 -13 -27 -31 -70 -41 -96 -10 -27 -21 -48 -25 -48 -4 0 -7
-6 -7 -12 0 -13 -56 -147 -111 -268 -16 -36 -33 -75 -37 -87 -3 -13 -10 -23
-14 -23 -4 0 -7 -10 -8 -22 -1 -11 -7 -24 -13 -28 -7 -4 -11 -10 -10 -14 3 -8
-80 -208 -89 -216 -3 -3 -7 -12 -9 -20 -2 -8 -8 -17 -13 -18 -5 -2 -7 -8 -3
-13 5 -9 -25 -71 -39 -77 -4 -2 -5 -7 -2 -12 8 -12 -31 -91 -40 -82 -5 4 -5 2
-2 -4 9 -15 -57 -166 -68 -156 -4 4 -5 2 -2 -4 8 -13 -32 -116 -42 -110 -3 2
-7 -6 -7 -17 -1 -12 -15 -51 -32 -87 -26 -55 -39 -86 -47 -110 -12 -35 -33
-69 -39 -63 -4 4 -4 0 0 -10 3 -10 1 -17 -6 -17 -6 0 -9 -3 -7 -8 3 -4 -3 -25
-14 -46 -10 -22 -19 -46 -19 -53 0 -8 -5 -11 -12 -7 -7 4 -8 3 -4 -5 4 -6 0
-23 -8 -36 -9 -14 -14 -25 -11 -25 4 0 -1 -12 -9 -27 -8 -16 -25 -50 -36 -78
-12 -27 -28 -64 -36 -82 -8 -17 -14 -36 -14 -42 0 -6 -4 -11 -10 -11 -5 0 -9
-3 -8 -7 5 -16 -46 -122 -55 -116 -6 3 -7 2 -4 -4 7 -11 -25 -101 -39 -111 -5
-4 -9 -11 -9 -17 0 -20 -48 -125 -57 -125 -5 0 -6 -4 -3 -10 3 -5 -8 -40 -25
-77 -18 -38 -39 -86 -48 -108 -9 -22 -26 -59 -37 -84 l-22 -44 0 1990 c0 1095
-3 1994 -6 1999 -3 5 -418 9 -969 9 l-963 0 0 -1285 -1 -1285 -1322 -3 -1322
-2 0 52 c-1 29 -2 609 -3 1288 l-2 1235 -965 0 -965 0 -3 -3427 -2 -3428 969
0 970 0 0 1313 c0 721 0 1323 1 1337 l0 25 1313 -1 c723 0 1318 -3 1323 -6 5
-4 9 -535 9 -1337 l-1 -1331 971 0 970 0 0 189 c0 110 4 187 9 183 5 -3 6 1 1
9 -5 7 -10 23 -11 36 -2 17 2 23 17 23 11 0 19 -7 19 -16 0 -14 -2 -15 -17 -3
-17 13 -17 12 -4 -4 14 -17 16 -17 27 -3 10 14 13 15 24 1 7 -8 15 -13 19 -11
4 3 13 -5 20 -16 11 -18 11 -20 -3 -15 -9 4 -16 2 -16 -3 0 -13 27 -13 35 -1
3 5 1 12 -5 16 -5 3 -10 11 -10 17 0 7 7 5 18 -4 9 -8 25 -18 35 -21 10 -4 16
-11 12 -16 -3 -5 -1 -13 5 -16 6 -4 10 -3 9 2 -4 21 3 23 23 9 12 -9 28 -16
35 -16 7 0 41 -13 75 -28 35 -16 88 -39 118 -52 53 -23 108 -61 68 -47 -10 4
-18 2 -18 -3 0 -13 23 -13 37 1 7 7 21 4 47 -10 20 -12 37 -20 39 -19 1 0 24
-9 51 -20 27 -12 52 -22 57 -22 5 0 9 -8 10 -17 0 -10 3 -13 5 -6 3 7 12 9 20
6 11 -4 12 -9 4 -18 -8 -10 -8 -15 1 -21 7 -4 9 -3 5 4 -9 15 16 21 39 9 19
-11 24 -12 53 -15 7 -1 10 -7 7 -13 -4 -6 -1 -10 6 -8 29 3 39 -2 39 -18 0
-12 3 -14 8 -6 8 13 113 -27 146 -56 11 -9 16 -11 13 -4 -4 6 14 1 40 -12 27
-12 58 -25 71 -29 12 -4 22 -12 22 -17 0 -6 -5 -7 -12 -3 -7 4 -8 3 -4 -5 14
-22 25 -5 67 97 8 17 18 32 22 32 5 0 7 6 4 13 -2 6 6 31 19 55 13 23 24 50
24 58 0 9 5 12 12 8 6 -4 8 -3 5 4 -9 13 2 44 13 37 4 -3 8 1 7 8 -1 39 4 49
21 42 12 -4 14 -3 6 5 -8 8 -4 30 17 81 16 39 32 76 36 82 4 7 8 17 9 22 4 23
31 64 38 58 4 -4 4 0 0 10 -3 9 -1 17 5 17 6 0 8 7 4 17 -4 9 -2 14 4 10 5 -3
9 3 9 15 -1 12 5 23 12 25 8 3 10 -1 5 -14 -7 -19 -5 -18 17 11 8 11 10 17 3
13 -6 -4 -15 -2 -19 4 -3 6 -1 15 6 19 6 4 11 10 11 14 -1 3 0 8 0 11 1 3 2 8
3 13 1 4 10 25 20 47 10 22 22 50 27 63 5 13 12 21 16 19 5 -3 9 9 10 26 2 18
7 33 13 35 6 2 7 9 3 15 -4 6 0 8 10 4 9 -3 19 -2 22 4 4 5 1 8 -6 7 -6 -2
-14 3 -17 11 -3 9 0 11 8 6 9 -5 11 -4 6 3 -7 11 6 41 34 76 9 11 10 16 3 12
-9 -5 -11 -2 -7 8 3 9 11 13 17 9 6 -3 7 -1 3 5 -4 6 -2 19 3 29 5 10 16 34
24 53 8 19 24 56 36 82 36 79 44 103 42 112 -1 5 5 6 13 3 9 -4 18 -1 22 5 4
6 3 8 -4 4 -17 -10 -24 11 -8 27 8 8 12 17 9 21 -4 3 -1 6 5 6 7 0 12 -4 12
-10 0 -5 7 -7 15 -4 8 4 15 1 15 -4 0 -6 8 -9 18 -8 28 6 64 -12 56 -26 -6
-10 -3 -9 9 0 9 8 25 11 36 7 12 -3 33 -8 48 -11 16 -3 44 -9 63 -14 19 -5 53
-11 75 -15 23 -3 50 -7 60 -9 24 -4 100 -16 135 -21 14 -2 43 -6 65 -9 209
-29 751 -30 940 -1 17 3 48 7 70 10 114 15 242 39 340 61 61 14 118 27 127 29
26 6 125 35 216 65 52 18 82 23 82 16 0 -6 4 -5 9 3 5 8 17 16 26 17 9 1 24 6
33 10 30 13 42 12 42 -2 0 -8 5 -14 11 -14 6 0 9 -6 6 -14 -3 -8 1 -20 9 -26
8 -7 14 -18 14 -25 0 -8 3 -15 8 -17 11 -5 63 -108 55 -108 -5 0 -3 -4 4 -8 6
-4 13 -14 15 -22 2 -8 9 -21 16 -28 7 -8 10 -17 7 -22 -3 -5 -1 -10 3 -12 9
-3 72 -111 72 -122 0 -4 -4 -5 -8 -2 -5 3 -9 -1 -9 -8 0 -8 6 -12 14 -9 8 3
20 -11 33 -38 11 -24 27 -53 35 -63 19 -24 11 -33 -12 -15 -16 13 -17 12 -4
-3 7 -10 19 -18 26 -18 18 0 26 -25 12 -39 -6 -6 -7 -11 -3 -11 5 0 4 -6 -2
-13 -8 -10 -6 -13 8 -13 15 0 16 4 9 18 -5 10 -6 18 -1 18 13 0 33 -50 26 -62
-4 -7 -2 -8 4 -4 7 4 12 1 12 -8 0 -9 4 -16 9 -16 7 0 19 -28 19 -47 0 -3 4
-9 9 -12 5 -3 16 -20 25 -37 13 -28 13 -32 -1 -43 -9 -6 -10 -9 -4 -6 7 3 21
1 30 -4 14 -8 14 -10 3 -11 -10 0 -7 -5 8 -16 12 -8 22 -24 22 -35 0 -10 5
-19 11 -19 8 0 7 -6 -2 -17 -7 -10 -10 -15 -5 -11 12 10 39 -20 30 -33 -4 -7
-3 -9 3 -6 10 6 70 -109 65 -125 -1 -4 2 -8 7 -8 10 0 51 -79 51 -98 0 -7 5
-12 10 -12 6 0 10 -5 10 -12 0 -6 7 -19 16 -29 9 -10 17 -29 18 -43 0 -13 6
-24 11 -23 6 1 10 -8 9 -20 0 -12 4 -21 10 -20 6 1 12 -8 14 -20 2 -13 8 -23
14 -23 5 0 8 -7 4 -15 -3 -8 0 -14 7 -12 7 1 11 -5 9 -14 -1 -9 5 -20 14 -23
9 -4 14 -13 10 -21 -3 -8 -2 -15 3 -15 4 0 16 -18 27 -39 14 -29 22 -37 31
-29 7 6 20 8 28 4 9 -3 13 -2 10 4 -3 5 12 18 35 30 22 11 40 17 40 13 0 -5 4
-3 8 2 12 18 102 66 111 61 5 -3 11 1 15 9 3 9 12 12 23 8 10 -3 14 -2 10 2
-4 5 7 16 25 25 18 9 72 37 120 62 48 25 89 43 92 40 4 -3 6 0 6 7 0 8 11 10
34 7 35 -6 56 7 35 20 -7 4 -9 3 -5 -4 4 -7 -1 -10 -14 -9 -31 2 -24 10 40 41
48 23 62 27 74 17 16 -13 40 -6 31 9 -3 5 4 11 15 13 17 4 17 4 -2 3 -13 -1
-22 -7 -20 -14 2 -14 -14 -16 -23 -2 -3 5 21 23 54 40 56 28 61 29 70 12 10
-15 11 -15 8 3 -1 11 1 20 4 20 4 0 15 7 25 15 36 29 89 54 111 52 13 -1 23 3
23 9 0 5 -6 7 -12 3 -8 -4 -10 -3 -5 2 15 16 67 10 73 -8 2 -9 12 -19 21 -22
12 -5 13 -4 5 7 -7 8 -8 18 -4 22 4 5 2 5 -4 2 -7 -4 -14 0 -18 8 -3 9 -12 12
-23 9 -16 -5 -16 -4 1 10 16 12 22 13 28 3 6 -9 8 -9 8 0 0 18 98 72 121 66
10 -3 16 -10 12 -16 -4 -6 -1 -7 7 -2 10 6 9 11 -4 21 -16 11 -16 13 6 20 13
4 27 8 31 9 4 0 11 5 15 11 4 6 28 21 54 33 27 13 51 27 54 32 3 6 12 5 22 -3
9 -7 13 -8 10 -3 -7 12 17 37 26 28 3 -4 6 0 6 8 0 11 2 11 8 1 7 -9 15 -10
33 -2 22 10 23 10 2 6 -50 -9 -21 12 72 53 6 2 4 -3 -4 -12 -8 -10 -9 -17 -3
-17 6 0 14 9 17 21 7 21 102 72 117 63 4 -3 8 2 8 11 0 9 5 13 10 10 6 -3 10
-1 10 4 0 6 8 10 18 8 21 -3 148 -97 145 -107 -1 -3 4 -7 11 -7 7 0 39 -17 72
-39 362 -237 790 -422 1162 -500 104 -21 97 -20 182 -34 41 -6 86 -13 100 -16
14 -2 56 -7 93 -10 37 -3 78 -8 90 -11 12 -3 361 -7 775 -9 l752 -3 0 788 0
789 -522 1 c-288 1 -536 3 -553 5 -16 2 -57 7 -89 10 -86 10 -233 43 -338 77
-583 187 -1050 672 -1217 1264 -50 179 -65 294 -66 510 0 165 6 245 24 328 6
26 14 64 17 85 10 71 93 301 147 409 51 103 124 225 171 285 12 14 32 41 46
60 34 45 236 247 284 283 21 17 44 35 50 40 30 28 196 131 283 175 148 74 355
145 483 165 25 4 55 9 66 11 102 18 217 22 682 20 l532 -1 0 783 0 784 -772
-5 c-425 -3 -784 -7 -798 -10 -14 -3 -48 -8 -75 -11 -28 -4 -68 -9 -90 -12
-33 -4 -132 -21 -230 -40 -11 -2 -56 -13 -100 -24 -44 -12 -90 -23 -102 -26
-11 -2 -77 -23 -145 -45 -449 -150 -841 -374 -1203 -689 -83 -72 -283 -279
-364 -375 -305 -366 -545 -820 -671 -1275 -29 -103 -26 -93 -51 -212 -14 -69
-26 -105 -33 -101 -7 4 -7 1 1 -7 7 -8 8 -22 3 -41 -10 -35 -10 -33 -10 -61 0
-19 -4 -16 -24 17 -13 22 -22 43 -20 47 3 5 1 8 -4 8 -5 0 -12 8 -16 18 -3 9
-15 32 -26 51 -12 18 -19 40 -16 48 3 8 2 12 -2 9 -5 -3 -16 8 -26 25 -9 16
-14 29 -9 29 4 0 3 4 -3 8 -17 12 -125 223 -119 233 4 5 2 9 -4 9 -12 0 -46
60 -34 60 5 0 3 4 -3 8 -19 11 -64 103 -57 115 3 5 1 7 -4 4 -13 -8 -26 20
-16 35 3 6 1 8 -4 5 -6 -4 -17 8 -24 26 -7 17 -15 34 -18 37 -11 10 -45 85
-44 97 0 7 -3 11 -7 8 -4 -2 -22 27 -39 65 -18 38 -37 72 -42 76 -5 3 -7 10
-4 15 4 5 3 9 -2 9 -4 0 -19 24 -33 53 -13 28 -32 63 -41 77 -10 14 -19 34
-21 45 -1 10 -11 27 -20 37 -17 17 -23 39 -18 63 1 6 -2 6 -6 2 -10 -10 -46
62 -37 76 3 5 1 7 -4 4 -10 -7 -23 12 -29 41 -1 8 -9 21 -17 30 -31 36 -39 62
-26 80 11 14 11 15 -1 5 -10 -10 -17 -5 -32 23 -10 19 -15 40 -12 46 4 6 3 8
-3 5 -6 -4 -17 8 -24 26 -7 17 -15 34 -18 37 -5 4 -58 104 -133 250 -13 25
-25 47 -28 50 -3 3 -10 17 -17 31 -11 26 -116 177 -168 243 -16 21 -75 84
-130 139 -55 56 -99 104 -98 108 1 3 -3 6 -10 6 -7 0 -48 26 -92 59 -98 72
-96 70 -220 138 -55 29 -140 70 -190 89 -89 35 -287 92 -355 102 -19 3 -46 7
-60 10 -14 2 -81 7 -150 10 -69 4 -130 8 -137 10 -6 2 -13 2 -15 1z"/>
<path d="M18346 18000 c-2 -8 -4 -1551 -4 -3427 l1 -3413 958 0 959 0 1 23 c0
12 1 397 1 856 0 755 2 835 17 850 9 10 47 51 85 92 38 41 101 108 140 149 39
42 132 141 206 220 238 254 273 290 279 289 3 0 22 -21 42 -47 33 -42 404
-515 512 -652 325 -411 309 -390 402 -509 36 -47 78 -101 94 -120 58 -72 457
-579 481 -611 14 -19 37 -48 51 -64 14 -17 65 -83 115 -146 49 -63 93 -120 99
-126 5 -6 44 -54 85 -107 l75 -97 1127 0 1128 0 -128 164 c-70 90 -151 195
-180 233 -123 160 -285 370 -300 388 -9 11 -44 56 -78 100 -49 65 -620 806
-708 920 -27 34 -149 193 -259 335 -41 52 -174 226 -297 385 -123 160 -243
315 -267 345 -24 30 -102 132 -173 225 -72 94 -136 177 -143 185 -7 8 -41 53
-77 100 -36 47 -70 92 -77 100 -7 8 -68 88 -137 176 l-124 162 23 26 c19 22
69 77 235 256 14 15 68 74 122 131 53 57 108 118 123 134 15 17 53 57 84 90
47 51 134 146 271 295 146 159 211 229 240 260 19 20 76 81 125 136 50 54 115
125 147 159 31 33 83 89 115 124 32 35 74 80 93 101 19 20 69 74 110 119 41
46 95 104 120 130 25 27 83 90 130 141 47 51 101 110 120 130 19 21 76 82 125
136 50 54 120 130 156 169 36 38 92 99 124 135 33 36 64 70 70 76 73 77 231
249 245 266 l18 23 -1065 0 -1065 0 -66 -71 c-56 -59 -170 -181 -330 -353 -19
-20 -59 -63 -90 -97 -65 -69 -264 -282 -312 -334 -18 -19 -80 -86 -139 -149
-58 -63 -113 -121 -121 -131 -12 -14 -172 -185 -270 -290 -14 -15 -74 -80
-135 -145 -60 -65 -123 -133 -140 -150 -43 -46 -246 -263 -274 -294 -13 -14
-72 -77 -130 -140 -120 -129 -141 -151 -230 -247 -144 -154 -290 -311 -352
-377 l-66 -71 0 1425 0 1424 -957 0 c-843 0 -957 -2 -960 -15z"/>
<path d="M8706 16628 c3 -5 10 -6 15 -3 13 9 11 12 -6 12 -8 0 -12 -4 -9 -9z"/>
<path d="M13145 15390 c-3 -6 1 -7 9 -4 18 7 21 14 7 14 -6 0 -13 -4 -16 -10z"/>
<path d="M11895 12570 c3 -5 8 -10 11 -10 2 0 4 5 4 10 0 6 -5 10 -11 10 -5 0
-7 -4 -4 -10z"/>
<path d="M11945 12550 c-3 -6 1 -7 9 -4 18 7 21 14 7 14 -6 0 -13 -4 -16 -10z"/>
<path d="M11893 12535 c0 -8 4 -12 9 -9 5 3 6 10 3 15 -9 13 -12 11 -12 -6z"/>
<path d="M11935 12490 c-3 -5 -1 -10 4 -10 6 0 11 5 11 10 0 6 -2 10 -4 10 -3
0 -8 -4 -11 -10z"/>
<path d="M12000 12450 c-9 -6 -10 -10 -3 -10 6 0 15 5 18 10 8 12 4 12 -15 0z"/>
<path d="M12035 12430 c3 -5 11 -10 16 -10 6 0 7 5 4 10 -3 6 -11 10 -16 10
-6 0 -7 -4 -4 -10z"/>
<path d="M9465 12410 c-3 -6 1 -7 9 -4 18 7 21 14 7 14 -6 0 -13 -4 -16 -10z"/>
<path d="M9530 12396 c0 -2 7 -7 16 -10 8 -3 12 -2 9 4 -6 10 -25 14 -25 6z"/>
<path d="M11976 12372 c-2 -4 -1 -14 4 -22 7 -11 9 -9 7 8 -1 24 -3 26 -11 14z"/>
<path d="M12015 12330 c3 -5 8 -10 11 -10 2 0 4 5 4 10 0 6 -5 10 -11 10 -5 0
-7 -4 -4 -10z"/>
<path d="M9434 12319 c-3 -6 -2 -15 3 -20 5 -5 9 -1 9 11 0 23 -2 24 -12 9z"/>
<path d="M9396 12308 c3 -5 10 -6 15 -3 13 9 11 12 -6 12 -8 0 -12 -4 -9 -9z"/>
<path d="M12075 12251 c-3 -5 -2 -12 3 -15 5 -3 9 1 9 9 0 17 -3 19 -12 6z"/>
<path d="M9350 12190 c0 -5 5 -10 11 -10 5 0 7 5 4 10 -3 6 -8 10 -11 10 -2 0
-4 -4 -4 -10z"/>
<path d="M9336 12143 c-6 -14 -5 -15 5 -6 7 7 10 15 7 18 -3 3 -9 -2 -12 -12z"/>
<path d="M12173 12143 c0 -9 4 -10 14 -2 7 6 13 12 13 14 0 1 -6 2 -13 2 -8 0
-14 -6 -14 -14z"/>
<path d="M9316 12037 c3 -10 9 -15 12 -12 3 3 0 11 -7 18 -10 9 -11 8 -5 -6z"/>
<path d="M12210 12032 c0 -5 7 -9 15 -9 8 0 12 4 9 9 -3 4 -9 8 -15 8 -5 0 -9
-4 -9 -8z"/>
<path d="M9267 12009 c7 -7 15 -10 18 -7 3 3 -2 9 -12 12 -14 6 -15 5 -6 -5z"/>
<path d="M9425 11990 c-3 -6 1 -7 9 -4 18 7 21 14 7 14 -6 0 -13 -4 -16 -10z"/>
<path d="M9290 11969 c0 -5 5 -7 10 -4 6 3 10 8 10 11 0 2 -4 4 -10 4 -5 0
-10 -5 -10 -11z"/>
<path d="M12215 11941 c-3 -5 -2 -12 3 -15 5 -3 9 1 9 9 0 17 -3 19 -12 6z"/>
<path d="M9233 11923 c0 -9 4 -10 14 -2 7 6 13 12 13 14 0 1 -6 2 -13 2 -8 0
-14 -6 -14 -14z"/>
<path d="M12319 11883 c-13 -16 -12 -17 4 -4 9 7 17 15 17 17 0 8 -8 3 -21
-13z"/>
<path d="M9206 11869 c4 -8 30 -6 38 2 3 3 -5 5 -19 5 -13 0 -22 -3 -19 -7z"/>
<path d="M14520 11866 c0 -8 4 -17 9 -20 5 -4 7 3 4 14 -6 23 -13 26 -13 6z"/>
<path d="M12235 11849 c-3 -4 2 -6 10 -5 21 3 28 13 10 13 -9 0 -18 -4 -20 -8z"/>
<path d="M14495 11849 c-4 -6 -5 -12 -2 -15 2 -3 7 2 10 11 7 17 1 20 -8 4z"/>
<path d="M14556 11852 c-3 -5 1 -9 9 -9 8 0 12 4 9 9 -3 4 -7 8 -9 8 -2 0 -6
-4 -9 -8z"/>
<path d="M14434 11839 c-3 -6 -2 -15 3 -20 5 -5 9 -1 9 11 0 23 -2 24 -12 9z"/>
<path d="M14461 11834 c0 -11 3 -14 6 -6 3 7 2 16 -1 19 -3 4 -6 -2 -5 -13z"/>
<path d="M9193 11833 c4 -3 1 -13 -6 -22 -11 -14 -10 -14 6 -2 20 15 22 31 5
31 -6 0 -8 -3 -5 -7z"/>
<path d="M9230 11829 c0 -5 5 -7 10 -4 6 3 10 8 10 11 0 2 -4 4 -10 4 -5 0
-10 -5 -10 -11z"/>
<path d="M9266 11832 c-3 -5 1 -9 9 -9 8 0 12 4 9 9 -3 4 -7 8 -9 8 -2 0 -6
-4 -9 -8z"/>
<path d="M12350 11832 c0 -5 7 -9 15 -9 8 0 12 4 9 9 -3 4 -9 8 -15 8 -5 0 -9
-4 -9 -8z"/>
<path d="M14390 11816 c0 -2 9 -6 20 -9 11 -3 18 -1 14 4 -5 9 -34 13 -34 5z"/>
<path d="M14549 11807 c6 -8 7 -18 3 -22 -4 -5 -1 -5 6 -1 10 6 10 11 1 22 -6
8 -14 14 -16 14 -3 0 0 -6 6 -13z"/>
<path d="M12330 11791 c0 -6 4 -12 8 -15 5 -3 9 1 9 9 0 8 -4 15 -9 15 -4 0
-8 -4 -8 -9z"/>
<path d="M14388 11793 c7 -3 16 -2 19 1 4 3 -2 6 -13 5 -11 0 -14 -3 -6 -6z"/>
<path d="M14435 11790 c-3 -5 -1 -10 4 -10 6 0 11 5 11 10 0 6 -2 10 -4 10 -3
0 -8 -4 -11 -10z"/>
<path d="M12297 11765 c-4 -8 -3 -16 1 -19 4 -3 9 4 9 15 2 23 -3 25 -10 4z"/>
<path d="M14310 11770 c0 -5 5 -10 10 -10 6 0 10 5 10 10 0 6 -4 10 -10 10 -5
0 -10 -4 -10 -10z"/>
<path d="M14610 11770 c0 -5 5 -10 11 -10 5 0 7 5 4 10 -3 6 -8 10 -11 10 -2
0 -4 -4 -4 -10z"/>
<path d="M14344 11745 c-18 -14 -18 -14 4 -8 12 3 22 9 22 14 0 12 -3 11 -26
-6z"/>
<path d="M14533 11735 c0 -8 4 -12 9 -9 5 3 6 10 3 15 -9 13 -12 11 -12 -6z"/>
<path d="M14310 11731 c0 -6 4 -13 10 -16 6 -3 7 1 4 9 -7 18 -14 21 -14 7z"/>
<path d="M14230 11715 c0 -8 2 -15 4 -15 2 0 6 7 10 15 3 8 1 15 -4 15 -6 0
-10 -7 -10 -15z"/>
<path d="M14263 11710 c-11 -16 -10 -18 4 -13 12 5 14 3 8 -7 -5 -8 -4 -11 3
-7 5 4 8 16 5 27 -6 24 -5 24 -20 0z"/>
<path d="M12392 11715 c3 -3 16 -8 28 -10 12 -2 20 -1 16 2 -4 4 -16 8 -28 10
-12 2 -19 1 -16 -2z"/>
<path d="M14176 11705 c-3 -9 1 -18 9 -21 8 -4 12 -11 8 -18 -3 -6 -2 -7 2 -3
15 13 14 36 -1 30 -10 -4 -12 0 -8 11 3 9 4 16 1 16 -3 0 -8 -7 -11 -15z"/>
<path d="M14435 11711 c-3 -5 -2 -12 3 -15 5 -3 9 1 9 9 0 17 -3 19 -12 6z"/>
<path d="M14359 11708 c-5 -18 -6 -38 -1 -34 7 8 12 36 6 36 -2 0 -4 -1 -5 -2z"/>
<path d="M14394 11699 c-3 -6 -2 -15 3 -20 5 -5 9 -1 9 11 0 23 -2 24 -12 9z"/>
<path d="M14320 11684 c-11 -12 -11 -18 2 -30 12 -12 17 -13 23 -3 5 7 4 10
-3 5 -16 -10 -25 13 -12 29 7 8 10 15 7 15 -2 0 -10 -7 -17 -16z"/>
<path d="M9153 11675 c0 -8 4 -12 9 -9 5 3 6 10 3 15 -9 13 -12 11 -12 -6z"/>
<path d="M14130 11679 c0 -5 -5 -7 -11 -3 -8 4 -7 0 1 -15 9 -18 30 -21 30 -5
0 3 -5 2 -11 -2 -8 -4 -9 0 -4 15 3 11 4 21 1 21 -3 0 -6 -5 -6 -11z"/>
<path d="M12359 11663 c-13 -16 -12 -17 4 -4 16 13 21 21 13 21 -2 0 -10 -8
-17 -17z"/>
<path d="M14426 11672 c-3 -5 1 -9 9 -9 8 0 12 4 9 9 -3 4 -7 8 -9 8 -2 0 -6
-4 -9 -8z"/>
<path d="M14086 11648 c3 -5 10 -6 15 -3 13 9 11 12 -6 12 -8 0 -12 -4 -9 -9z"/>
<path d="M14160 11645 c-7 -9 -8 -15 -2 -15 5 0 12 7 16 15 3 8 4 15 2 15 -2
0 -9 -7 -16 -15z"/>
<path d="M14233 11645 c0 -8 4 -12 9 -9 4 3 8 9 8 15 0 5 -4 9 -8 9 -5 0 -9
-7 -9 -15z"/>
<path d="M12425 11629 c-3 -4 2 -6 10 -5 21 3 28 13 10 13 -9 0 -18 -4 -20 -8z"/>
<path d="M14110 11631 c0 -6 4 -13 10 -16 6 -3 7 1 4 9 -7 18 -14 21 -14 7z"/>
<path d="M14030 11626 c0 -3 9 -10 20 -16 11 -6 20 -8 20 -6 0 3 -9 10 -20 16
-11 6 -20 8 -20 6z"/>
<path d="M14140 11616 c0 -2 9 -6 20 -9 11 -3 18 -1 14 4 -5 9 -34 13 -34 5z"/>
<path d="M14333 11605 c0 -8 4 -12 9 -9 5 3 6 10 3 15 -9 13 -12 11 -12 -6z"/>
<path d="M9195 11590 c3 -5 8 -10 11 -10 2 0 4 5 4 10 0 6 -5 10 -11 10 -5 0
-7 -4 -4 -10z"/>
<path d="M13970 11590 c0 -5 5 -10 10 -10 6 0 10 5 10 10 0 6 -4 10 -10 10 -5
0 -10 -4 -10 -10z"/>
<path d="M14036 11592 c-3 -5 1 -9 9 -9 8 0 12 4 9 9 -3 4 -7 8 -9 8 -2 0 -6
-4 -9 -8z"/>
<path d="M14131 11584 c0 -11 3 -14 6 -6 3 7 2 16 -1 19 -3 4 -6 -2 -5 -13z"/>
<path d="M9069 11573 c-13 -16 -12 -17 4 -4 16 13 21 21 13 21 -2 0 -10 -8
-17 -17z"/>
<path d="M14076 11582 c-2 -4 4 -8 14 -8 10 0 16 4 14 8 -3 4 -9 8 -14 8 -5 0
-11 -4 -14 -8z"/>
<path d="M12415 11570 c3 -5 8 -10 11 -10 2 0 4 5 4 10 0 6 -5 10 -11 10 -5 0
-7 -4 -4 -10z"/>
<path d="M14013 11559 c-2 -23 3 -25 10 -4 4 8 3 16 -1 19 -4 3 -9 -4 -9 -15z"/>
<path d="M14255 11569 c-3 -4 2 -6 10 -5 21 3 28 13 10 13 -9 0 -18 -4 -20 -8z"/>
<path d="M12500 11555 c0 -8 4 -15 10 -15 5 0 7 7 4 15 -4 8 -8 15 -10 15 -2
0 -4 -7 -4 -15z"/>
<path d="M13953 11564 c-7 -3 -9 -12 -6 -21 5 -12 3 -14 -8 -8 -8 5 -11 4 -6
0 16 -18 32 -12 32 11 0 13 0 24 0 23 0 0 -5 -3 -12 -5z"/>
<path d="M7670 11550 c0 -5 5 -10 10 -10 6 0 10 5 10 10 0 6 -4 10 -10 10 -5
0 -10 -4 -10 -10z"/>
<path d="M13895 11549 c-4 -6 -5 -12 -2 -15 2 -3 7 2 10 11 7 17 1 20 -8 4z"/>
<path d="M14074 11544 c1 -7 6 -17 10 -21 4 -4 6 -1 4 7 -2 9 3 14 12 12 8 -2
11 0 7 4 -13 14 -35 12 -33 -2z"/>
<path d="M14030 11546 c0 -2 8 -10 18 -17 15 -13 16 -12 3 4 -13 16 -21 21
-21 13z"/>
<path d="M7653 11533 c4 -6 2 -13 -4 -15 -7 -2 -6 -8 3 -16 12 -9 14 -8 13 8
-1 11 -5 23 -10 27 -4 5 -5 3 -2 -4z"/>
<path d="M9135 11530 c-3 -5 -1 -10 4 -10 6 0 11 5 11 10 0 6 -2 10 -4 10 -3
0 -8 -4 -11 -10z"/>
<path d="M13910 11531 c0 -6 4 -13 10 -16 6 -3 7 1 4 9 -7 18 -14 21 -14 7z"/>
<path d="M14174 11532 c4 -3 14 -7 22 -8 9 -1 13 0 10 4 -4 3 -14 7 -22 8 -9
1 -13 0 -10 -4z"/>
<path d="M7686 11513 c-6 -14 -5 -15 5 -6 7 7 10 15 7 18 -3 3 -9 -2 -12 -12z"/>
<path d="M12493 11517 c0 -7 11 -13 23 -13 20 0 25 11 6 11 -4 0 -12 3 -18 7
-6 4 -11 1 -11 -5z"/>
<path d="M14013 11517 c0 -8 6 -14 14 -14 9 0 10 4 2 14 -6 7 -12 13 -14 13
-1 0 -2 -6 -2 -13z"/>
<path d="M7753 11507 c0 -20 24 -30 33 -14 4 7 4 9 -1 5 -4 -4 -13 0 -20 8
-11 15 -12 15 -12 1z"/>
<path d="M9046 11508 c3 -5 9 -7 12 -4 3 3 12 0 21 -6 13 -10 14 -10 4 2 -15
16 -46 23 -37 8z"/>
<path d="M7795 11480 c-16 -11 -25 -20 -20 -20 10 0 64 39 55 40 -3 0 -18 -9
-35 -20z"/>
<path d="M13951 11483 c7 -12 15 -20 18 -17 3 2 -3 12 -13 22 -17 16 -18 16
-5 -5z"/>
<path d="M7835 11480 c-3 -5 -1 -10 4 -10 6 0 11 5 11 10 0 6 -2 10 -4 10 -3
0 -8 -4 -11 -10z"/>
<path d="M13773 11471 c2 -11 7 -24 12 -28 4 -5 5 -3 2 4 -4 6 -3 13 2 15 5 1
3 9 -5 16 -12 11 -13 9 -11 -7z"/>
<path d="M7640 11475 c0 -2 6 -8 13 -14 10 -8 14 -7 14 2 0 8 -6 14 -14 14 -7
0 -13 -1 -13 -2z"/>
<path d="M7720 11475 c0 -2 6 -8 13 -14 10 -8 14 -7 14 2 0 8 -6 14 -14 14 -7
0 -13 -1 -13 -2z"/>
<path d="M7875 11470 c-3 -5 -2 -10 4 -10 5 0 13 5 16 10 3 6 2 10 -4 10 -5 0
-13 -4 -16 -10z"/>
<path d="M13725 11470 c-3 -5 -1 -10 4 -10 6 0 11 5 11 10 0 6 -2 10 -4 10 -3
0 -8 -4 -11 -10z"/>
<path d="M13911 11477 c2 -1 13 -9 24 -17 19 -14 19 -14 6 3 -7 9 -18 17 -24
17 -6 0 -8 -1 -6 -3z"/>
<path d="M14150 11476 c0 -2 7 -7 16 -10 8 -3 12 -2 9 4 -6 10 -25 14 -25 6z"/>
<path d="M12547 11456 c-4 -10 -1 -13 8 -9 8 3 12 9 9 14 -7 12 -11 11 -17 -5z"/>
<path d="M7700 11456 c0 -2 8 -10 18 -17 15 -13 16 -12 3 4 -13 16 -21 21 -21
13z"/>
<path d="M7894 11449 c-3 -6 -3 -13 0 -16 3 -4 6 -1 6 7 0 10 3 10 15 0 9 -7
17 -11 20 -9 2 3 -4 10 -15 17 -13 8 -21 8 -26 1z"/>
<path d="M13690 11450 c-9 -6 -10 -10 -3 -10 6 0 15 5 18 10 8 12 4 12 -15 0z"/>
<path d="M13840 11445 c-7 -8 -16 -13 -20 -10 -4 3 -14 -3 -21 -13 -12 -15
-12 -16 1 -6 8 6 23 10 33 8 11 -1 16 0 13 3 -3 4 -1 12 5 20 6 7 9 13 6 13
-2 0 -10 -7 -17 -15z"/>
<path d="M13876 11448 c3 -5 10 -6 15 -3 13 9 11 12 -6 12 -8 0 -12 -4 -9 -9z"/>
<path d="M14035 11439 c-4 -6 -5 -12 -2 -15 2 -3 7 2 10 11 7 17 1 20 -8 4z"/>
<path d="M7844 11425 c-4 -8 -11 -12 -18 -8 -6 3 -7 2 -3 -2 14 -16 33 -13 33
6 0 23 -5 24 -12 4z"/>
<path d="M13700 11430 c-12 -7 -10 -9 7 -7 12 0 19 5 17 9 -6 10 -6 10 -24 -2z"/>
<path d="M13745 11429 c-4 -6 -4 -13 -1 -16 3 -4 6 -1 6 6 0 7 5 9 10 6 6 -3
10 -1 10 4 0 14 -17 14 -25 0z"/>
<path d="M13933 11421 c0 -11 5 -18 9 -15 4 3 5 11 1 19 -7 21 -12 19 -10 -4z"/>
<path d="M7961 11423 c-1 -17 16 -25 25 -12 4 7 3 9 -4 5 -5 -3 -13 0 -15 6
-4 9 -6 10 -6 1z"/>
<path d="M8020 11421 c0 -7 -5 -9 -12 -5 -7 5 -8 3 -3 -5 5 -9 10 -10 18 -2 6
6 8 14 4 18 -4 3 -7 1 -7 -6z"/>
<path d="M7760 11410 c-9 -6 -10 -10 -3 -10 6 0 15 5 18 10 8 12 4 12 -15 0z"/>
<path d="M8028 11398 c-10 -10 -14 -18 -9 -18 10 0 36 29 30 34 -2 1 -12 -6
-21 -16z"/>
<path d="M13620 11404 c0 -5 7 -18 15 -28 8 -11 15 -16 15 -10 0 5 -7 18 -15
28 -8 11 -15 16 -15 10z"/>
<path d="M13672 11401 c-11 -7 -11 -9 0 -14 9 -3 15 1 15 9 0 8 -1 14 -1 14
-1 0 -7 -4 -14 -9z"/>
<path d="M7910 11391 c0 -10 19 -25 25 -20 1 2 -3 10 -11 17 -8 7 -14 8 -14 3z"/>
<path d="M8065 11390 c3 -5 8 -10 11 -10 2 0 4 5 4 10 0 6 -5 10 -11 10 -5 0
-7 -4 -4 -10z"/>
<path d="M13580 11396 c0 -2 8 -10 18 -17 15 -13 16 -12 3 4 -13 16 -21 21
-21 13z"/>
<path d="M13711 11377 c-13 -21 -12 -21 5 -5 10 10 16 20 13 22 -3 3 -11 -5
-18 -17z"/>
<path d="M7955 11373 c3 -3 0 -11 -5 -18 -7 -8 -5 -12 4 -12 14 0 16 22 3 32
-4 3 -5 2 -2 -2z"/>
<path d="M8056 11367 c3 -10 9 -15 12 -12 3 3 0 11 -7 18 -10 9 -11 8 -5 -6z"/>
<path d="M9055 11370 c3 -5 8 -10 11 -10 2 0 4 5 4 10 0 6 -5 10 -11 10 -5 0
-7 -4 -4 -10z"/>
<path d="M12550 11376 c0 -2 7 -7 16 -10 8 -3 12 -2 9 4 -6 10 -25 14 -25 6z"/>
<path d="M7895 11350 c2 -27 10 -33 12 -10 1 11 -2 22 -6 24 -4 3 -7 -4 -6
-14z"/>
<path d="M8028 11363 c6 -2 9 -10 6 -15 -4 -7 -2 -8 5 -4 13 9 5 26 -12 25 -9
0 -8 -2 1 -6z"/>
<path d="M12594 11346 c0 -12 6 -23 13 -23 9 0 10 4 3 12 -5 7 -7 14 -4 17 3
3 1 8 -3 11 -5 3 -9 -5 -9 -17z"/>
<path d="M13612 11361 c-11 -7 -11 -9 0 -14 9 -3 15 1 15 9 0 8 -1 14 -1 14
-1 0 -7 -4 -14 -9z"/>
<path d="M7817 11345 c-4 -8 -3 -16 1 -19 4 -3 9 4 9 15 2 23 -3 25 -10 4z"/>
<path d="M8086 11347 c3 -10 9 -15 12 -12 3 3 0 11 -7 18 -10 9 -11 8 -5 -6z"/>
<path d="M8142 11352 c-8 -6 -2 -9 18 -9 20 0 26 3 18 9 -7 4 -15 8 -18 8 -3
0 -11 -4 -18 -8z"/>
<path d="M13559 11343 c-13 -17 -13 -17 6 -3 11 8 22 16 24 17 2 2 0 3 -6 3
-6 0 -17 -8 -24 -17z"/>
<path d="M13865 11350 c-3 -6 1 -7 9 -4 18 7 21 14 7 14 -6 0 -13 -4 -16 -10z"/>
<path d="M13475 11339 c-4 -6 -5 -12 -2 -15 2 -3 7 2 10 11 7 17 1 20 -8 4z"/>
<path d="M8195 11329 c-4 -6 -5 -12 -2 -15 2 -3 7 2 10 11 7 17 1 20 -8 4z"/>
<path d="M8230 11330 c0 -5 5 -10 11 -10 5 0 7 5 4 10 -3 6 -8 10 -11 10 -2 0
-4 -4 -4 -10z"/>
<path d="M13491 11321 c-8 -14 -7 -20 3 -24 10 -4 12 0 8 15 -4 16 -2 19 8 13
9 -5 11 -4 6 3 -10 16 -14 15 -25 -7z"/>
<path d="M8147 11317 c-3 -7 3 -13 13 -13 10 0 16 6 13 13 -3 7 -9 13 -13 13
-4 0 -10 -6 -13 -13z"/>
<path d="M13570 11319 c0 -5 -4 -8 -9 -5 -5 3 -15 -2 -22 -12 -13 -16 -13 -16
5 -2 18 14 19 13 13 -5 -7 -20 -7 -20 8 -1 15 20 20 36 10 36 -3 0 -5 -5 -5
-11z"/>
<path d="M8114 11296 c3 -16 8 -31 11 -35 3 -3 4 7 1 23 -3 16 -8 31 -11 35
-3 3 -4 -7 -1 -23z"/>
<path d="M8211 11304 c0 -11 3 -14 6 -6 3 7 2 16 -1 19 -3 4 -6 -2 -5 -13z"/>
<path d="M8265 11310 c3 -5 11 -10 16 -10 6 0 7 5 4 10 -3 6 -11 10 -16 10 -6
0 -7 -4 -4 -10z"/>
<path d="M8960 11316 c0 -2 8 -10 18 -17 15 -13 16 -12 3 4 -13 16 -21 21 -21
13z"/>
<path d="M13438 11313 c7 -3 16 -2 19 1 4 3 -2 6 -13 5 -11 0 -14 -3 -6 -6z"/>
<path d="M13636 11308 c3 -5 10 -6 15 -3 13 9 11 12 -6 12 -8 0 -12 -4 -9 -9z"/>
<path d="M7935 11290 c3 -5 8 -10 11 -10 2 0 4 5 4 10 0 6 -5 10 -11 10 -5 0
-7 -4 -4 -10z"/>
<path d="M7975 11290 c3 -5 8 -10 11 -10 2 0 4 5 4 10 0 6 -5 10 -11 10 -5 0
-7 -4 -4 -10z"/>
<path d="M8230 11290 c0 -5 5 -10 10 -10 6 0 10 5 10 10 0 6 -4 10 -10 10 -5
0 -10 -4 -10 -10z"/>
<path d="M8291 11282 c-7 -14 -6 -19 4 -19 7 0 11 7 7 15 -4 11 -1 13 8 7 9
-5 11 -4 6 3 -10 16 -14 15 -25 -6z"/>
<path d="M12630 11296 c0 -2 7 -7 16 -10 8 -3 12 -2 9 4 -6 10 -25 14 -25 6z"/>
<path d="M13585 11289 c-3 -4 2 -6 10 -5 21 3 28 13 10 13 -9 0 -18 -4 -20 -8z"/>
<path d="M13695 11290 c3 -5 8 -10 11 -10 2 0 4 5 4 10 0 6 -5 10 -11 10 -5 0
-7 -4 -4 -10z"/>
<path d="M8036 11268 c3 -5 10 -6 15 -3 13 9 11 12 -6 12 -8 0 -12 -4 -9 -9z"/>
<path d="M8179 11263 c-13 -16 -12 -17 4 -4 16 13 21 21 13 21 -2 0 -10 -8
-17 -17z"/>
<path d="M8959 11263 c-13 -16 -12 -17 4 -4 16 13 21 21 13 21 -2 0 -10 -8
-17 -17z"/>
<path d="M12626 11272 c-3 -5 1 -9 9 -9 8 0 12 4 9 9 -3 4 -7 8 -9 8 -2 0 -6
-4 -9 -8z"/>
<path d="M13366 11267 c3 -10 9 -15 12 -12 3 3 0 11 -7 18 -10 9 -11 8 -5 -6z"/>
<path d="M13450 11270 c0 -5 5 -10 10 -10 6 0 10 5 10 10 0 6 -4 10 -10 10 -5
0 -10 -4 -10 -10z"/>
<path d="M13639 11263 c-13 -16 -12 -17 4 -4 16 13 21 21 13 21 -2 0 -10 -8
-17 -17z"/>
<path d="M7975 11251 c-3 -5 -2 -12 3 -15 5 -3 9 1 9 9 0 17 -3 19 -12 6z"/>
<path d="M13350 11251 c0 -6 4 -13 10 -16 6 -3 7 1 4 9 -7 18 -14 21 -14 7z"/>
<path d="M8401 11243 c-1 -6 -4 -20 -7 -30 -5 -17 -5 -17 6 0 6 10 9 23 6 30
-3 9 -5 9 -5 0z"/>
<path d="M8933 11235 c0 -8 3 -13 5 -10 3 3 10 0 17 -5 8 -7 12 -5 12 5 0 8
-3 13 -5 10 -3 -3 -10 0 -17 5 -8 7 -12 5 -12 -5z"/>
<path d="M12659 11248 c-5 -18 -6 -38 -1 -34 7 8 12 36 6 36 -2 0 -4 -1 -5 -2z"/>
<path d="M13295 11241 c-3 -5 -2 -12 3 -15 5 -3 9 1 9 9 0 17 -3 19 -12 6z"/>
<path d="M8216 11228 c3 -5 10 -6 15 -3 13 9 11 12 -6 12 -8 0 -12 -4 -9 -9z"/>
<path d="M8250 11232 c0 -5 7 -9 15 -9 8 0 12 4 9 9 -3 4 -9 8 -15 8 -5 0 -9
-4 -9 -8z"/>
<path d="M8347 11218 c-5 -21 -5 -21 7 -6 7 10 17 14 21 10 5 -4 5 -1 1 6 -11
19 -23 14 -29 -10z"/>
<path d="M8986 11232 c-3 -5 1 -9 9 -9 8 0 15 4 15 9 0 4 -4 8 -9 8 -6 0 -12
-4 -15 -8z"/>
<path d="M13321 11223 c0 -11 3 -13 6 -5 2 6 10 9 15 6 7 -4 8 -2 4 4 -11 18
-26 14 -25 -5z"/>
<path d="M13413 11223 c0 -9 4 -10 14 -2 7 6 13 12 13 14 0 1 -6 2 -13 2 -8 0
-14 -6 -14 -14z"/>
<path d="M8441 11223 c-1 -17 16 -25 25 -12 4 7 3 9 -4 5 -5 -3 -13 0 -15 6
-4 9 -6 10 -6 1z"/>
<path d="M13273 11215 c0 -8 4 -15 9 -15 4 0 8 4 8 9 0 6 -4 12 -8 15 -5 3 -9
-1 -9 -9z"/>
<path d="M8415 11211 c-3 -6 5 -15 17 -21 21 -10 21 -10 6 3 -10 8 -15 17 -11
20 3 4 4 7 0 7 -3 0 -8 -4 -12 -9z"/>
<path d="M13436 11203 c-6 -14 -5 -15 5 -6 7 7 10 15 7 18 -3 3 -9 -2 -12 -12z"/>
<path d="M8469 11193 c-13 -16 -12 -17 4 -4 16 13 21 21 13 21 -2 0 -10 -8
-17 -17z"/>
<path d="M8497 11197 c-3 -8 1 -14 8 -14 7 0 11 6 8 14 -3 7 -6 13 -8 13 -2 0
-5 -6 -8 -13z"/>
<path d="M13230 11200 c8 -5 20 -10 25 -10 6 0 3 5 -5 10 -8 5 -19 10 -25 10
-5 0 -3 -5 5 -10z"/>
<path d="M13375 11200 c-4 -6 -11 -8 -16 -5 -5 4 -9 1 -9 -4 0 -16 16 -13 30
4 7 8 10 15 7 15 -3 0 -9 -5 -12 -10z"/>
<path d="M12656 11192 c-3 -5 1 -9 9 -9 8 0 12 4 9 9 -3 4 -7 8 -9 8 -2 0 -6
-4 -9 -8z"/>
<path d="M13197 11193 c-4 -3 -7 -11 -7 -17 0 -6 5 -5 12 2 6 6 9 14 7 17 -3
3 -9 2 -12 -2z"/>
<path d="M13295 11189 c-4 -6 -4 -13 -1 -16 3 -4 6 -1 6 6 0 7 5 9 12 5 7 -4
8 -3 4 4 -9 15 -13 15 -21 1z"/>
<path d="M13465 11190 c-3 -6 1 -7 9 -4 18 7 21 14 7 14 -6 0 -13 -4 -16 -10z"/>
<path d="M8350 11186 c0 -2 8 -10 18 -17 15 -13 16 -12 3 4 -13 16 -21 21 -21
13z"/>
<path d="M8394 11165 c0 -13 3 -22 7 -19 8 4 6 30 -2 38 -3 3 -5 -5 -5 -19z"/>
<path d="M8215 11170 c3 -5 8 -10 11 -10 2 0 4 5 4 10 0 6 -5 10 -11 10 -5 0
-7 -4 -4 -10z"/>
<path d="M8537 11169 c7 -7 15 -10 18 -7 3 3 -2 9 -12 12 -14 6 -15 5 -6 -5z"/>
<path d="M8576 11172 c-2 -4 0 -14 6 -22 8 -12 9 -11 4 4 -5 14 -2 17 9 12 9
-3 13 -2 10 4 -7 12 -22 13 -29 2z"/>
<path d="M8910 11168 c0 -4 4 -8 9 -8 6 0 12 4 15 8 3 5 -1 9 -9 9 -8 0 -15
-4 -15 -9z"/>
<path d="M12610 11169 c0 -5 5 -7 10 -4 6 3 10 8 10 11 0 2 -4 4 -10 4 -5 0
-10 -5 -10 -11z"/>
<path d="M12690 11171 c0 -6 4 -13 10 -16 6 -3 7 1 4 9 -7 18 -14 21 -14 7z"/>
<path d="M13215 11170 c-3 -6 1 -7 9 -4 18 7 21 14 7 14 -6 0 -13 -4 -16 -10z"/>
<path d="M8470 11159 c0 -5 -4 -8 -8 -5 -5 3 -9 -1 -9 -9 0 -10 4 -12 12 -5 7
5 14 8 17 5 2 -3 5 2 5 10 0 8 -4 15 -9 15 -4 0 -8 -5 -8 -11z"/>
<path d="M8500 11166 c0 -2 7 -7 16 -10 8 -3 12 -2 9 4 -6 10 -25 14 -25 6z"/>
<path d="M8333 11140 c1 -21 10 -18 13 5 1 8 -2 15 -6 15 -5 0 -8 -9 -7 -20z"/>
<path d="M8880 11156 c0 -2 8 -10 18 -17 15 -13 16 -12 3 4 -13 16 -21 21 -21
13z"/>
<path d="M13125 11149 c-3 -4 2 -6 10 -5 21 3 28 13 10 13 -9 0 -18 -4 -20 -8z"/>
<path d="M13170 11150 c0 -5 5 -10 10 -10 6 0 10 5 10 10 0 6 -4 10 -10 10 -5
0 -10 -4 -10 -10z"/>
<path d="M13232 11155 c4 -5 2 -15 -5 -24 -10 -14 -10 -14 5 -3 9 8 22 11 28
7 5 -3 10 -4 10 -1 0 3 -10 11 -22 17 -13 6 -20 8 -16 4z"/>
<path d="M8555 11141 c-6 -11 13 -26 22 -17 4 3 1 6 -6 6 -7 0 -9 5 -6 10 3 6
4 10 1 10 -3 0 -7 -4 -11 -9z"/>
<path d="M8500 11134 c0 -1 8 -8 17 -15 9 -8 14 -9 10 -2 -4 6 -1 13 5 16 7 3
3 4 -9 4 -13 -1 -23 -2 -23 -3z"/>
<path d="M8595 11130 c-3 -5 -1 -10 4 -10 6 0 11 5 11 10 0 6 -2 10 -4 10 -3
0 -8 -4 -11 -10z"/>
<path d="M8655 11131 c-6 -11 13 -26 22 -17 4 3 1 6 -6 6 -7 0 -9 5 -6 10 3 6
4 10 1 10 -3 0 -7 -4 -11 -9z"/>
<path d="M13310 11132 c0 -5 7 -9 15 -9 8 0 12 4 9 9 -3 4 -9 8 -15 8 -5 0 -9
-4 -9 -8z"/>
<path d="M8620 11123 c0 -7 5 -15 10 -18 6 -4 8 -11 5 -16 -4 -5 -1 -9 4 -9
15 0 13 11 -4 34 -8 11 -15 15 -15 9z"/>
<path d="M12675 11121 c-3 -5 -2 -12 3 -15 5 -3 9 1 9 9 0 17 -3 19 -12 6z"/>
<path d="M13077 11117 c-3 -8 -2 -20 3 -26 5 -9 8 -4 8 13 0 29 -3 32 -11 13z"/>
<path d="M13107 11117 c-3 -8 1 -14 8 -14 7 0 11 6 8 14 -3 7 -6 13 -8 13 -2
0 -5 -6 -8 -13z"/>
<path d="M13146 11114 c-5 -14 -4 -15 9 -4 17 14 19 20 6 20 -5 0 -12 -7 -15
-16z"/>
<path d="M8490 11111 c0 -6 4 -13 10 -16 6 -3 7 1 4 9 -7 18 -14 21 -14 7z"/>
<path d="M12707 11109 c7 -7 15 -10 18 -7 3 3 -2 9 -12 12 -14 6 -15 5 -6 -5z"/>
<path d="M13246 11112 c-3 -5 1 -9 9 -9 8 0 12 4 9 9 -3 4 -7 8 -9 8 -2 0 -6
-4 -9 -8z"/>
<path d="M8754 11096 c1 -8 5 -18 8 -22 4 -3 5 1 4 10 -1 8 -5 18 -8 22 -4 3
-5 -1 -4 -10z"/>
<path d="M8547 11089 c7 -7 15 -10 18 -7 3 3 -2 9 -12 12 -14 6 -15 5 -6 -5z"/>
<path d="M13013 11085 c0 -8 4 -12 9 -9 5 3 6 10 3 15 -9 13 -12 11 -12 -6z"/>
<path d="M13052 11095 c4 -4 0 -14 -10 -22 -9 -8 -12 -12 -5 -9 6 4 13 1 15
-6 3 -7 7 -2 10 10 4 12 1 25 -5 29 -7 3 -9 3 -5 -2z"/>
<path d="M13295 11090 c3 -5 8 -10 11 -10 2 0 4 5 4 10 0 6 -5 10 -11 10 -5 0
-7 -4 -4 -10z"/>
<path d="M13335 11090 c-3 -5 -1 -10 4 -10 6 0 11 5 11 10 0 6 -2 10 -4 10 -3
0 -8 -4 -11 -10z"/>
<path d="M12735 11080 c-4 -6 -11 -7 -17 -4 -7 4 -8 2 -4 -5 6 -9 11 -9 22 0
14 11 18 19 10 19 -3 0 -8 -5 -11 -10z"/>
<path d="M13179 11078 c15 -21 31 -23 31 -6 0 6 -3 8 -7 5 -3 -4 -13 -1 -22 6
-14 11 -14 10 -2 -5z"/>
<path d="M8356 11068 c3 -5 10 -6 15 -3 13 9 11 12 -6 12 -8 0 -12 -4 -9 -9z"/>
<path d="M8576 11072 c-3 -5 1 -9 9 -9 8 0 12 4 9 9 -3 4 -7 8 -9 8 -2 0 -6
-4 -9 -8z"/>
<path d="M8690 11068 c0 -4 4 -8 9 -8 6 0 12 4 15 8 3 5 -1 9 -9 9 -8 0 -15
-4 -15 -9z"/>
<path d="M12970 11070 c0 -5 5 -10 11 -10 5 0 7 5 4 10 -3 6 -8 10 -11 10 -2
0 -4 -4 -4 -10z"/>
<path d="M13119 11078 c-5 -18 -6 -38 -1 -34 7 8 12 36 6 36 -2 0 -4 -1 -5 -2z"/>
<path d="M12753 11057 c0 -8 6 -14 14 -14 9 0 10 4 2 14 -6 7 -12 13 -14 13
-1 0 -2 -6 -2 -13z"/>
<path d="M13070 11066 c0 -2 8 -10 18 -17 15 -13 16 -12 3 4 -13 16 -21 21
-21 13z"/>
<path d="M13151 11057 c-8 -10 -7 -14 2 -14 8 0 14 6 14 14 0 7 -1 13 -2 13
-2 0 -8 -6 -14 -13z"/>
<path d="M8719 11043 c-13 -16 -12 -17 4 -4 16 13 21 21 13 21 -2 0 -10 -8
-17 -17z"/>
<path d="M8790 11051 c0 -6 4 -12 8 -15 5 -3 9 1 9 9 0 8 -4 15 -9 15 -4 0 -8
-4 -8 -9z"/>
<path d="M8899 11058 c-5 -18 -6 -38 -1 -34 7 8 12 36 6 36 -2 0 -4 -1 -5 -2z"/>
<path d="M12918 11043 c7 -3 16 -2 19 1 4 3 -2 6 -13 5 -11 0 -14 -3 -6 -6z"/>
<path d="M8586 11032 c-3 -5 1 -9 9 -9 8 0 12 4 9 9 -3 4 -7 8 -9 8 -2 0 -6
-4 -9 -8z"/>
<path d="M12996 11025 c-11 -8 -15 -15 -9 -15 7 0 15 5 18 10 4 6 11 7 17 4 7
-4 8 -2 4 4 -9 14 -7 15 -30 -3z"/>
<path d="M13053 11023 c0 -9 4 -10 14 -2 7 6 13 12 13 14 0 1 -6 2 -13 2 -8 0
-14 -6 -14 -14z"/>
<path d="M8855 11010 c3 -5 8 -10 11 -10 2 0 4 5 4 10 0 6 -5 10 -11 10 -5 0
-7 -4 -4 -10z"/>
<path d="M12760 11010 c-9 -6 -10 -10 -3 -10 6 0 15 5 18 10 8 12 4 12 -15 0z"/>
<path d="M12905 11010 c-3 -6 1 -7 9 -4 18 7 21 14 7 14 -6 0 -13 -4 -16 -10z"/>
<path d="M12944 11000 c0 -8 8 -16 18 -16 11 0 14 4 8 12 -6 6 -8 13 -5 16 3
2 -1 5 -8 5 -7 0 -13 -8 -13 -17z"/>
<path d="M12834 10996 c1 -8 5 -18 8 -22 4 -3 5 1 4 10 -1 8 -5 18 -8 22 -4 3
-5 -1 -4 -10z"/>
<path d="M13015 11001 c-3 -5 -2 -12 3 -15 5 -3 9 1 9 9 0 17 -3 19 -12 6z"/>
<path d="M8775 10971 c-3 -5 -2 -12 3 -15 5 -3 9 1 9 9 0 17 -3 19 -12 6z"/>
<path d="M13095 10970 c3 -5 8 -10 11 -10 2 0 4 5 4 10 0 6 -5 10 -11 10 -5 0
-7 -4 -4 -10z"/>
<path d="M12936 10957 c3 -10 9 -15 12 -12 3 3 0 11 -7 18 -10 9 -11 8 -5 -6z"/>
<path d="M12975 10959 c-4 -6 -5 -12 -2 -15 2 -3 7 2 10 11 7 17 1 20 -8 4z"/>
<path d="M8876 10952 c-3 -5 1 -9 9 -9 8 0 12 4 9 9 -3 4 -7 8 -9 8 -2 0 -6
-4 -9 -8z"/>
<path d="M12835 10950 c3 -5 8 -10 11 -10 2 0 4 5 4 10 0 6 -5 10 -11 10 -5 0
-7 -4 -4 -10z"/>
<path d="M13013 10935 c0 -8 4 -12 9 -9 5 3 6 10 3 15 -9 13 -12 11 -12 -6z"/>
<path d="M12915 10919 c-4 -6 -5 -12 -2 -15 2 -3 7 2 10 11 7 17 1 20 -8 4z"/>
<path d="M12796 10903 c-6 -14 -5 -15 5 -6 7 7 10 15 7 18 -3 3 -9 -2 -12 -12z"/>
<path d="M12655 10623 c-16 -2 -70 -13 -120 -24 -521 -121 -838 -558 -784
-1080 25 -238 109 -412 283 -585 85 -84 160 -139 261 -191 229 -118 574 -145
847 -68 127 36 282 118 373 197 l26 22 -182 182 -181 181 -31 -28 c-43 -40
-132 -85 -204 -103 -60 -16 -193 -22 -243 -12 -14 3 -38 9 -55 12 -145 31
-279 171 -329 342 -24 83 -16 289 14 367 64 167 183 270 350 304 69 14 220 8
282 -12 57 -18 126 -57 173 -98 l34 -30 168 169 c92 92 174 175 180 183 11 14
2 24 -65 71 -144 104 -284 161 -472 194 -32 5 -286 11 -325 7z"/>
<path d="M16968 10625 c-2 -1 -25 -5 -53 -9 -302 -35 -515 -216 -558 -473 -24
-142 -9 -272 45 -375 80 -152 217 -245 523 -356 186 -68 223 -85 268 -124 46
-39 61 -90 41 -136 -24 -59 -106 -90 -230 -86 -150 5 -270 51 -400 155 l-60
48 -170 -170 -169 -169 41 -38 c55 -49 77 -67 111 -89 15 -9 30 -20 33 -23 3
-3 37 -22 75 -42 81 -42 217 -84 308 -95 80 -10 326 -10 397 -1 229 31 408
125 512 268 32 44 74 150 85 215 10 52 9 223 -1 264 -22 93 -68 180 -129 242
-104 106 -188 153 -445 245 -252 91 -301 122 -309 196 -5 40 -2 50 20 72 90
89 328 53 481 -74 27 -22 53 -39 57 -38 5 2 83 77 175 167 l166 165 -39 34
c-57 50 -132 98 -204 131 -63 28 -188 69 -239 77 -14 3 -38 7 -55 11 -30 6
-271 13 -277 8z"/>
<path d="M19404 10619 c-312 -38 -536 -231 -571 -492 -46 -346 113 -554 535
-701 220 -76 315 -126 343 -178 16 -30 13 -85 -6 -114 -39 -60 -187 -85 -330
-56 -80 15 -213 77 -265 122 -19 17 -47 40 -61 50 l-25 19 -169 -169 -169
-169 50 -46 c109 -100 252 -180 385 -214 116 -30 133 -32 299 -36 170 -3 294
8 362 34 13 5 28 9 33 10 83 14 206 83 283 160 117 116 163 248 157 444 -2 59
-7 112 -10 117 -3 6 -8 19 -10 30 -2 11 -18 49 -35 84 -32 64 -81 122 -155
184 -55 47 -234 131 -395 187 -225 78 -294 126 -288 200 5 70 65 106 177 107
120 1 227 -39 325 -121 26 -23 51 -41 55 -41 3 0 82 75 175 166 l169 166 -34
30 c-109 100 -268 176 -445 213 -87 18 -284 26 -380 14z"/>
<path d="M5686 10590 c-1 -3 -2 -106 -2 -230 l1 -225 287 0 288 0 1 -30 c0
-16 1 -348 1 -737 l1 -707 271 2 271 2 0 727 c1 400 4 731 8 735 4 4 135 7
290 8 l282 0 1 228 c0 125 -2 228 -5 228 -19 4 -1693 3 -1695 -1z"/>
<path d="M7594 10591 c-2 -2 -4 -438 -4 -967 l0 -963 269 1 c238 1 270 3 273
17 2 9 3 177 3 374 -1 197 2 360 7 363 7 4 493 8 594 5 21 -1 21 -2 22 -368 0
-203 1 -373 1 -379 1 -8 81 -11 271 -11 l270 0 -2 966 -3 966 -263 0 c-158 0
-266 -3 -270 -9 -3 -5 -6 -168 -6 -360 l-1 -351 -310 0 -310 0 0 360 -1 360
-268 0 c-147 0 -269 -2 -272 -4z"/>
<path d="M9625 10591 c-3 -2 -4 -437 -4 -966 l0 -962 738 -1 738 -1 -1 227 -1
226 -465 1 -465 0 0 157 -1 157 406 0 c223 0 410 0 415 1 7 0 11 73 10 218 l0
217 -400 2 c-220 0 -407 2 -415 2 -13 1 -15 23 -16 136 0 74 2 136 5 136 4 1
207 2 453 3 245 0 449 4 453 7 5 5 10 371 6 434 -1 10 -1447 16 -1456 6z"/>
<path d="M13734 10591 c-2 -2 -4 -437 -4 -967 l0 -962 270 0 270 1 0 386 1
386 22 -27 c12 -15 35 -48 51 -75 32 -51 79 -126 167 -263 30 -47 66 -103 79
-125 13 -22 26 -42 29 -45 4 -3 11 -14 18 -25 6 -11 39 -63 73 -116 l61 -97
304 0 c168 0 305 2 305 5 0 5 -111 167 -163 238 -16 22 -111 157 -211 300
l-183 260 46 18 c151 60 238 128 315 247 84 127 102 318 46 478 -62 177 -219
307 -435 363 -87 22 -104 23 -573 24 -266 0 -485 -1 -488 -4z m870 -405 c107
-41 152 -168 97 -273 -43 -84 -96 -103 -286 -105 l-140 -1 -3 188 c-1 104 -1
194 1 200 7 17 280 10 331 -9z"/>
<path d="M15529 10590 c-1 -3 -2 -438 -3 -966 l-2 -961 271 1 270 1 0 963 c1
529 -2 963 -5 963 -18 4 -530 3 -531 -1z"/>
<path d="M18006 10590 c-1 -3 -2 -437 -2 -965 l1 -960 270 0 270 0 0 965 0
965 -268 0 c-148 0 -270 -2 -271 -5z"/>
</g>
</svg>
