<svg xmlns="http://www.w3.org/2000/svg" xmlns:xlink="http://www.w3.org/1999/xlink" width="408" height="88" version="1.1" viewBox="0 0 408 88"><title>logo-qoom-black</title><g id="Page-1" fill="none" fill-rule="evenodd" stroke="none" stroke-width="1"><g id="logo-qoom-black" fill="#000" fill-rule="nonzero"><path id="Shape" d="M87,88 L87,76.161435 L73.173913,76.161435 C77.5217391,72.1275536 80.9130435,67.348281 83.3478261,61.8236173 C85.7826087,56.2989537 87,50.4235177 87,44.1973094 C87,38.2341804 85.8695652,32.5341305 83.6086957,27.0971599 C81.3478261,21.6601893 78.2173913,16.9247633 74.2173913,12.8908819 C70.2173913,8.8570005 65.5652174,5.70004983 60.2608696,3.4200299 C54.9565217,1.14000997 49.3478261,0 43.4347826,0 C37.5217391,0 31.9347826,1.14000997 26.673913,3.4200299 C21.4130435,5.70004983 16.7826087,8.8570005 12.7826087,12.8908819 C8.7826087,16.8370703 5.65217391,21.550573 3.39130435,27.0313901 C1.13043478,32.5122073 0,38.2341804 0,44.1973094 C0,50.1604385 1.10869565,55.7947185 3.32608696,61.1001495 C5.54347826,66.4055805 8.69565217,71.0752367 12.7826087,75.1091181 C16.8695652,79.1429995 21.5434783,82.2999502 26.8043478,84.5799701 C32.0652174,86.85999 37.6086957,88 43.4347826,88 L43.4347826,88 L87,88 Z M44,76 C39.6982167,76 35.5939643,75.1912568 31.6872428,73.5737705 C27.7805213,71.9562842 24.3347051,69.6612022 21.3497942,66.6885246 C18.3648834,63.715847 16.0603567,60.284153 14.436214,56.3934426 C12.8120713,52.5027322 12,48.4153005 12,44.1311475 C12,39.7595628 12.8340192,35.5846995 14.5020576,31.6065574 C16.170096,27.6284153 18.4526749,24.1967213 21.3497942,21.3114754 C24.3347051,18.3387978 27.7805213,16.0437158 31.6872428,14.4262295 C35.5939643,12.8087432 39.6982167,12 44,12 C48.3017833,12 52.4060357,12.8087432 56.3127572,14.4262295 C60.2194787,16.0437158 63.6652949,18.3387978 66.6502058,21.3114754 C69.5473251,24.1967213 71.829904,27.6284153 73.4979424,31.6065574 C75.1659808,35.5846995 76,39.7595628 76,44.1311475 C76,48.4153005 75.1879287,52.5027322 73.563786,56.3934426 C71.9396433,60.284153 69.6351166,63.715847 66.6502058,66.6885246 C63.6652949,69.6612022 60.2194787,71.9562842 56.3127572,73.5737705 C52.4060357,75.1912568 48.3017833,76 44,76 Z M142.434783,88 C148.347826,88 153.956522,86.85999 159.26087,84.5799701 C164.565217,82.2999502 169.217391,79.1429995 173.217391,75.1091181 C177.217391,71.0752367 180.347826,66.3617339 182.608696,60.9686099 C184.869565,55.5754858 186,49.8973592 186,43.9342302 C186,37.9711011 184.869565,32.3148979 182.608696,26.9656203 C180.347826,21.6163428 177.217391,16.9247633 173.217391,12.8908819 C169.217391,8.8570005 164.565217,5.70004983 159.26087,3.4200299 C153.956522,1.14000997 148.347826,0 142.434783,0 C136.521739,0 130.934783,1.14000997 125.673913,3.4200299 C120.413043,5.70004983 115.782609,8.8570005 111.782609,12.8908819 C107.695652,17.0124564 104.543478,21.7259591 102.326087,27.0313901 C100.108696,32.3368211 99,37.9711011 99,43.9342302 C99,49.8973592 100.130435,55.5754858 102.391304,60.9686099 C104.652174,66.3617339 107.782609,71.0752367 111.782609,75.1091181 C115.782609,79.2306926 120.413043,82.4095665 125.673913,84.6457399 C130.934783,86.8819133 136.521739,88 142.434783,88 Z M143,76 C138.698217,76 134.593964,75.1912568 130.687243,73.5737705 C126.780521,71.9562842 123.334705,69.6612022 120.349794,66.6885246 C117.452675,63.8032787 115.170096,60.3715847 113.502058,56.3934426 C111.834019,52.4153005 111,48.2404372 111,43.8688525 C111,39.5846995 111.812071,35.4972678 113.436214,31.6065574 C115.060357,27.715847 117.364883,24.284153 120.349794,21.3114754 C123.334705,18.3387978 126.780521,16.0437158 130.687243,14.4262295 C134.593964,12.8087432 138.698217,12 143,12 C147.301783,12 151.406036,12.8087432 155.312757,14.4262295 C159.219479,16.0437158 162.665295,18.3387978 165.650206,21.3114754 C168.635117,24.284153 170.939643,27.715847 172.563786,31.6065574 C174.187929,35.4972678 175,39.5846995 175,43.8688525 C175,48.2404372 174.165981,52.4153005 172.497942,56.3934426 C170.829904,60.3715847 168.547325,63.8032787 165.650206,66.6885246 C162.665295,69.6612022 159.219479,71.9562842 155.312757,73.5737705 C151.406036,75.1912568 147.301783,76 143,76 Z M241.434783,88 C247.347826,88 252.956522,86.85999 258.26087,84.5799701 C263.565217,82.2999502 268.217391,79.1429995 272.217391,75.1091181 C276.217391,71.0752367 279.347826,66.3617339 281.608696,60.9686099 C283.869565,55.5754858 285,49.8973592 285,43.9342302 C285,37.9711011 283.869565,32.3148979 281.608696,26.9656203 C279.347826,21.6163428 276.217391,16.9247633 272.217391,12.8908819 C268.217391,8.8570005 263.565217,5.70004983 258.26087,3.4200299 C252.956522,1.14000997 247.347826,0 241.434783,0 C235.521739,0 229.934783,1.14000997 224.673913,3.4200299 C219.413043,5.70004983 214.782609,8.8570005 210.782609,12.8908819 C206.695652,17.0124564 203.543478,21.7259591 201.326087,27.0313901 C199.108696,32.3368211 198,37.9711011 198,43.9342302 C198,49.8973592 199.130435,55.5754858 201.391304,60.9686099 C203.652174,66.3617339 206.782609,71.0752367 210.782609,75.1091181 C214.782609,79.2306926 219.413043,82.4095665 224.673913,84.6457399 C229.934783,86.8819133 235.521739,88 241.434783,88 Z M378.004511,3 C383.46817,3 388.494737,4.33933333 393.084211,7.018 C397.673684,9.69666667 401.307018,13.3593333 403.984211,18.006 C406.661404,22.6526667 408,27.7093333 408,33.176 L408,33.176 L408,85 L396.854135,85 L396.854135,33.176 C396.854135,27.928 394.996491,23.4726667 391.281203,19.81 C387.565915,16.1473333 383.140351,14.316 378.004511,14.316 C372.759398,14.316 368.306516,16.1473333 364.645865,19.81 C360.985213,23.4726667 359.154887,27.8733333 359.154887,33.012 L359.154887,33.012 L359.154887,85 L347.845113,85 L347.845113,33.012 C347.845113,27.8733333 345.987469,23.4726667 342.27218,19.81 C338.556892,16.1473333 334.131328,14.316 328.995489,14.316 C323.859649,14.316 319.434085,16.202 315.718797,19.974 C312.003509,23.746 310.145865,28.256 310.145865,33.504 L310.145865,33.504 L310.145865,85 L299,85 L299,5.132 L310.145865,5.132 L310.145865,11.528 C312.331328,8.904 315.145113,6.82666667 318.587218,5.296 C322.029323,3.76533333 325.498747,3 328.995489,3 C333.912782,3 338.529574,4.148 342.845865,6.444 C347.162155,8.74 350.686216,11.8013333 353.418045,15.628 C356.259148,11.8013333 359.837845,8.74 364.154135,6.444 C368.470426,4.148 373.087218,3 378.004511,3 Z M242,12 C246.301783,12 250.406036,12.8087432 254.312757,14.4262295 C258.219479,16.0437158 261.665295,18.3387978 264.650206,21.3114754 C267.635117,24.284153 269.939643,27.715847 271.563786,31.6065574 C273.187929,35.4972678 274,39.5846995 274,43.8688525 C274,48.2404372 273.165981,52.4153005 271.497942,56.3934426 C269.829904,60.3715847 267.547325,63.8032787 264.650206,66.6885246 C261.665295,69.6612022 258.219479,71.9562842 254.312757,73.5737705 C250.406036,75.1912568 246.301783,76 242,76 C237.698217,76 233.593964,75.1912568 229.687243,73.5737705 C225.780521,71.9562842 222.334705,69.6612022 219.349794,66.6885246 C216.452675,63.8032787 214.170096,60.3715847 212.502058,56.3934426 C210.834019,52.4153005 210,48.2404372 210,43.8688525 C210,39.5846995 210.812071,35.4972678 212.436214,31.6065574 C214.060357,27.715847 216.364883,24.284153 219.349794,21.3114754 C222.334705,18.3387978 225.780521,16.0437158 229.687243,14.4262295 C233.593964,12.8087432 237.698217,12 242,12 Z"/><circle id="Oval" cx="151" cy="25" r="14"/><circle id="Oval" cx="251" cy="25" r="14"/></g></g></svg>